<?xml version="1.0" encoding="iso-8859-1"?>
<!-- Uploaded to: SVG Repo, www.svgrepo.com, Generator: SVG Repo Mixer Tools -->
<svg fill="#000000" height="800px" width="800px" version="1.1" id="Layer_1" xmlns="http://www.w3.org/2000/svg" xmlns:xlink="http://www.w3.org/1999/xlink" 
	 viewBox="0 0 512 512" xml:space="preserve">
<g>
	<g>
		<path d="M234.32,138.168l-50.938-50.938c-3.108-3.108-8.148-3.108-11.255,0l-50.938,50.938c-1.493,1.492-2.332,3.517-2.332,5.628
			v101.877c0,4.396,3.564,7.959,7.959,7.959h33.959c4.396,0,7.959-3.564,7.959-7.959v-51.469h18.041v51.469
			c0,4.396,3.564,7.959,7.959,7.959h33.959c4.396,0,7.959-3.564,7.959-7.959V143.795C236.651,141.684,235.813,139.66,234.32,138.168
			z M220.733,237.713h-18.041v-51.469c0-4.396-3.564-7.959-7.959-7.959h-33.959c-4.396,0-7.959,3.564-7.959,7.959v51.469h-18.041
			v-90.622l42.979-42.979l42.979,42.979V237.713z"/>
	</g>
</g>
<g>
	<g>
		<path d="M267.957,76.902c-3.276-2.932-8.308-2.653-11.238,0.622c-2.932,3.275-2.653,8.307,0.622,11.238
			c25.294,22.638,39.8,55.074,39.8,88.992c0,65.83-53.556,119.387-119.387,119.387S58.367,243.585,58.367,177.754
			S111.923,58.367,177.754,58.367c14.812,0,29.262,2.676,42.948,7.956c4.101,1.58,8.708-0.461,10.291-4.561
			c1.582-4.102-0.461-8.708-4.561-10.291c-15.522-5.987-31.899-9.022-48.678-9.022c-74.608,0-135.305,60.697-135.305,135.305
			s60.697,135.305,135.305,135.305s135.305-60.697,135.305-135.305C313.059,139.315,296.62,102.555,267.957,76.902z"/>
	</g>
</g>
<g>
	<g>
		<path d="M502.225,454.951l-96.051-96.051c-3.108-3.108-8.148-3.108-11.255,0l-10.259,10.259l-73.769-73.769
			c27.745-31.366,44.617-72.565,44.617-117.636C355.508,79.74,275.768,0,177.754,0S0,79.74,0,177.754
			c0,52,22.675,101.236,62.212,135.083c3.339,2.859,8.363,2.469,11.222-0.87c2.859-3.339,2.469-8.363-0.87-11.222
			c-35.999-30.819-56.646-75.648-56.646-122.991c0-89.237,72.599-161.836,161.836-161.836s161.836,72.599,161.836,161.836
			S266.99,339.59,177.754,339.59c-24.761,0-48.522-5.443-70.62-16.178c-3.955-1.922-8.716-0.273-10.637,3.681
			c-1.921,3.954-0.273,8.716,3.681,10.637c24.283,11.798,50.383,17.779,77.575,17.779c47.227,0,90.208-18.518,122.073-48.669
			l73.577,73.577L358.9,394.919c-3.108,3.108-3.108,8.148,0,11.255l96.051,96.051c6.517,6.517,15.077,9.775,23.638,9.775
			c8.56,0,17.121-3.258,23.636-9.775C515.259,489.191,515.259,467.984,502.225,454.951z M490.97,490.969
			c-6.827,6.828-17.935,6.828-24.762,0l-90.423-90.423l24.762-24.762l90.423,90.423C497.797,473.034,497.797,484.142,490.97,490.969
			z"/>
	</g>
</g>
</svg>